# Rhino

o object_1
v -28 85 29
v 29 85 29
v -28 33.03813572973013 29
v -28 28 29
v 23.96186554431915 27.99999999999999 29
v 29 28 29
v 29 33.03813572973013 29
v 29 79.96186554431915 29
v -22.96186427026987 85 29
v -28 79.96186554431915 29
v -4.538136154413223 56.5 29
v 0.5 61.53813445568084 29
v 23.96186554431915 85 29
v 5.538134455680849 56.5 29
v 0.5 51.46186384558678 29
v -22.96186427026987 28 29
v -28 68.23093277215958 29
v -28 79.96186554431915 29
v -16.26906807720661 56.5 29
v -4.538136154413223 56.5 29
v -28 85 29
v -28 68.23093277215958 29
v -28 79.96186554431915 29
v 0.5 73.26906722784041 29
v 0.5 61.53813445568084 29
v -11.23093277215958 85 29
v -22.96186427026987 85 29
v 12.23093277215958 85 29
v 23.96186554431915 85 29
v 0.5 73.26906722784041 29
v 0.5 61.53813445568084 29
v 29 85 29
v 12.23093277215958 85 29
v 23.96186554431915 85 29
v 17.26906722784042 56.5 29
v 5.538134455680849 56.5 29
v 29 68.23093277215958 29
v 29 79.96186554431915 29
v 29 44.76906722784042 29
v 29 33.03813572973013 29
v 17.26906722784042 56.5 29
v 5.538134455680849 56.5 29
v 29 28 29
v 29 44.76906722784042 29
v 29 33.03813572973013 29
v 0.5 39.73093192279339 29
v 0.5 51.46186384558678 29
v 12.23093277215958 28 29
v 23.96186554431915 27.99999999999999 29
v -11.23093277215958 28 29
v -22.96186427026987 28 29
v 0.5 39.73093192279339 29
v 0.5 51.46186384558678 29
v -28 28 29
v -11.23093277215958 28 29
v -22.96186427026987 28 29
v -16.26906807720661 56.5 29
v -4.538136154413223 56.5 29
v -28 44.76906722784042 29
v -28 33.03813572973013 29
v -28 28 -28
v -28 28 29
v 29 28 -28
v 29 28 29
v 12.23093277215958 28 29
v -11.23093277215958 28 29
v 29 28 -28
v 29 28 29
v 29 85 -28
v 29 85 29
v 29 68.23093277215958 29
v 29 44.76906722784042 29
v 29 85 -28
v 29 85 29
v -28 85 -28
v -28 85 29
v -11.23093277215958 85 29
v 12.23093277215958 85 29
v -28 85 -28
v -28 85 29
v -28 28 -28
v -28 28 29
v -28 68.23093277215958 29
v -28 44.76906722784042 29
v -28 28 -28
v -28 85 -28
v 29 28 -28
v 29 85 -28
v -11.23093277215958 28 29
v 12.23093277215958 28 29
v 0.5 39.73093192279339 29
v 29 44.76906722784042 29
v 29 68.23093277215958 29
v 17.26906722784042 56.5 29
v -11.23093277215958 85 29
v 12.23093277215958 85 29
v 0.5 73.26906722784041 29
v -28 44.76906722784042 29
v -28 68.23093277215958 29
v -16.26906807720661 56.5 29
v 29 28 -28
v 29 85 -28
v 29 44.76906722784042 29
v 29 68.23093277215958 29
v 29 44.76906722784042 29
v 29 85 -28
v -28 28 -28
v 29 28 -28
v -11.23093277215958 28 29
v 12.23093277215958 28 29
v -11.23093277215958 28 29
v 29 28 -28
v 23.96186554431915 27.99999999999999 29
v 12.23093277215958 28 29
v 29 28 29
v -22.96186427026987 85 29
v -11.23093277215958 85 29
v -28 85 29
v 29 79.96186554431915 29
v 29 68.23093277215958 29
v 29 85 29
v -28 33.03813572973013 29
v -28 44.76906722784042 29
v -28 28 29
vn 0 0 1
vn 0 0 1
vn 0 0 1
vn 0 0 1
vn 0 0 1
vn 0 0 1
vn 0 0 1
vn 0 0 1
vn 0 0 1
vn 0 0 1
vn 0 0 1
vn 0 0 1
vn 0 0 1
vn 0 0 1
vn 0 0 1
vn 0 0 1
vn 0 0 1
vn 0 0 1
vn 0 0 1
vn 0 0 1
vn 0 0 1
vn 0 0 1
vn 0 0 1
vn 0 0 1
vn 0 0 1
vn 0 0 1
vn 0 0 1
vn 0 0 1
vn 0 0 1
vn 0 0 1
vn 0 0 1
vn 0 0 1
vn 0 0 1
vn 0 0 1
vn 0 0 1
vn 0 0 1
vn 0 0 1
vn 0 0 1
vn 0 0 1
vn 0 0 1
vn 0 0 1
vn 0 0 1
vn 0 0 1
vn 0 0 1
vn 0 0 1
vn 0 0 1
vn 0 0 1
vn 0 0 1
vn 0 0 1
vn 0 0 1
vn 0 0 1
vn 0 0 1
vn 0 0 1
vn 0 0 1
vn 0 0 1
vn 0 0 1
vn 0 0 1
vn 0 0 1
vn 0 0 1
vn 0 0 1
vn 0 -1 0
vn 0 -1 0
vn 4.717221112721275e-17 -1 0
vn 4.717221112721275e-17 -1 0
vn 4.717221112721275e-17 -1 0
vn 0 -1 0
vn 1 0 0
vn 1 0 0
vn 1 0 0
vn 1 0 0
vn 1 0 0
vn 1 0 0
vn 0 1 0
vn 0 1 0
vn 0 1 0
vn 0 1 0
vn 0 1 0
vn 0 1 0
vn -1 0 0
vn -1 0 0
vn -1 0 0
vn -1 0 0
vn -1 0 0
vn -1 0 0
vn 0 0 -1
vn 0 0 -1
vn 0 0 -1
vn 0 0 -1
vn 0 0 1
vn 0 0 1
vn 0 0 1
vn 0 0 1
vn 0 0 1
vn 0 0 1
vn 0 0 1
vn 0 0 1
vn 0 0 1
vn 0 0 1
vn 0 0 1
vn 0 0 1
vn 1 0 0
vn 1 0 0
vn 1 0 0
vn 1 0 0
vn 1 0 0
vn 1 0 0
vn 0 -1 0
vn 0 -1 0
vn 0 -1 0
vn -3.371573287515115e-17 -1 -2.37967603414828e-17
vn -3.371573287515115e-17 -1 -2.37967603414828e-17
vn -3.371573287515115e-17 -1 -2.37967603414828e-17
vn 0 0 -1
vn 0 0 -1
vn 0 0 -1
vn 0 0 1
vn 0 0 1
vn 0 0 1
vn 0 0 1
vn 0 0 1
vn 0 0 1
vn 0 0 1
vn 0 0 1
vn 0 0 1
f 16//16 3//3 4//4
f 11//11 3//3 16//16
f 15//15 11//11 16//16
f 9//9 1//1 10//10
f 10//10 11//11 12//12
f 9//9 10//10 12//12
f 14//14 11//11 15//15
f 14//14 15//15 7//7
f 11//11 14//14 12//12
f 5//5 6//6 7//7
f 13//13 12//12 14//14
f 13//13 8//8 2//2
f 13//13 14//14 8//8
f 7//7 15//15 5//5
f 18//18 17//17 19//19
f 116//116 117//117 118//118
f 25//25 24//24 26//26
f 29//29 28//28 30//30
f 119//119 120//120 121//121
f 36//36 35//35 37//37
f 40//40 39//39 41//41
f 113//113 114//114 115//115
f 47//47 46//46 48//48
f 51//51 50//50 52//52
f 122//122 123//123 124//124
f 58//58 57//57 59//59
f 62//62 61//61 66//66
f 107//107 108//108 109//109
f 64//64 65//65 63//63
f 68//68 67//67 72//72
f 101//101 102//102 103//103
f 70//70 71//71 69//69
f 74//74 73//73 78//78
f 73//73 75//75 77//77
f 76//76 77//77 75//75
f 80//80 79//79 83//83
f 79//79 81//81 84//84
f 82//82 84//84 81//81
f 86//86 88//88 87//87
f 91//91 89//89 90//90
f 93//93 94//94 92//92
f 96//96 95//95 97//97
f 99//99 98//98 100//100
f 18//18 19//19 20//20
f 21//21 22//22 23//23
f 25//25 26//26 27//27
f 29//29 30//30 31//31
f 32//32 33//33 34//34
f 36//36 37//37 38//38
f 40//40 41//41 42//42
f 43//43 44//44 45//45
f 47//47 48//48 49//49
f 51//51 52//52 53//53
f 54//54 55//55 56//56
f 58//58 59//59 60//60
f 110//110 111//111 112//112
f 104//104 105//105 106//106
f 73//73 77//77 78//78
f 79//79 84//84 83//83
f 86//86 87//87 85//85
