# Rhino

o object_1
v -28 85 29
v 29 85 29
v -28 33.03813572973013 29
v -28 28 29
v 23.96186554431915 27.99999999999999 29
v 29 28 29
v 29 33.03813572973013 29
v 29 79.96186554431915 29
v -22.96186427026987 85 29
v -28 79.96186554431915 29
v -4.538136154413223 56.5 29
v 0.5 61.53813445568084 29
v 23.96186554431915 85 29
v 5.538134455680849 56.5 29
v 0.5 51.46186384558678 29
v -22.96186427026987 28 29
v -28 68.23093277215958 0.5
v -28 79.96186554431915 29
v -16.26906807720661 56.5 0.5
v -4.538136154413223 56.5 29
v -28 85 0.5
v -28 85 29
v -28 68.23093277215958 0.5
v -28 79.96186554431915 29
v 0.5 73.26906722784041 0.5
v 0.5 61.53813445568084 29
v -11.23093277215958 85 0.5
v -22.96186427026987 85 29
v 12.23093277215958 85 0.5
v 23.96186554431915 85 29
v 0.5 73.26906722784041 0.5
v 0.5 61.53813445568084 29
v 29 85 0.5
v 29 85 29
v 12.23093277215958 85 0.5
v 23.96186554431915 85 29
v 17.26906722784042 56.5 0.5
v 5.538134455680849 56.5 29
v 29 68.23093277215958 0.5
v 29 79.96186554431915 29
v 29 44.76906722784042 0.5
v 29 33.03813572973013 29
v 17.26906722784042 56.5 0.5
v 5.538134455680849 56.5 29
v 29 28 0.5
v 29 28 29
v 29 44.76906722784042 0.5
v 29 33.03813572973013 29
v 0.5 39.73093192279339 0.5
v 0.5 51.46186384558678 29
v 12.23093277215958 28 0.5
v 23.96186554431915 27.99999999999999 29
v -11.23093277215958 28 0.5
v -22.96186427026987 28 29
v 0.5 39.73093192279339 0.5
v 0.5 51.46186384558678 29
v -28 28 0.5
v -28 28 29
v -11.23093277215958 28 0.5
v -22.96186427026987 28 29
v -16.26906807720661 56.5 0.5
v -4.538136154413223 56.5 29
v -28 44.76906722784042 0.5
v -28 33.03813572973013 29
v -28 28 -28
v -28 28 0.5
v 29 28 -28
v 29 28 0.5
v 12.23093277215958 28 0.5
v -11.23093277215958 28 0.5
v 29 28 -28
v 29 28 0.5
v 29 85 -28
v 29 85 0.5
v 29 68.23093277215958 0.5
v 29 44.76906722784042 0.5
v 29 85 -28
v 29 85 0.5
v -28 85 -28
v -28 85 0.5
v -11.23093277215958 85 0.5
v 12.23093277215958 85 0.5
v -28 85 -28
v -28 85 0.5
v -28 28 -28
v -28 28 0.5
v -28 68.23093277215958 0.5
v -28 44.76906722784042 0.5
v -28 28 -28
v -28 85 -28
v 29 28 -28
v 29 85 -28
v -11.23093277215958 28 0.5
v 12.23093277215958 28 0.5
v 0.5 39.73093192279339 0.5
v 29 44.76906722784042 0.5
v 29 68.23093277215958 0.5
v 17.26906722784042 56.5 0.5
v -11.23093277215958 85 0.5
v 12.23093277215958 85 0.5
v 0.5 73.26906722784041 0.5
v -28 44.76906722784042 0.5
v -28 68.23093277215958 0.5
v -16.26906807720661 56.5 0.5
v 29 28 -28
v 29 85 -28
v 29 44.76906722784042 0.5
v 29 68.23093277215958 0.5
v 29 44.76906722784042 0.5
v 29 85 -28
v -28 28 -28
v 29 28 -28
v -11.23093277215958 28 0.5
v 12.23093277215958 28 0.5
v -11.23093277215958 28 0.5
v 29 28 -28
v 23.96186554431915 27.99999999999999 29
v 12.23093277215958 28 0.5
v 29 28 29
v 29 28 0.5
v 29 28 29
v 12.23093277215958 28 0.5
v -22.96186427026987 85 29
v -11.23093277215958 85 0.5
v -28 85 29
v -28 85 0.5
v -28 85 29
v -11.23093277215958 85 0.5
v 29 79.96186554431915 29
v 29 68.23093277215958 0.5
v 29 85 29
v 29 85 0.5
v 29 85 29
v 29 68.23093277215958 0.5
v -28 33.03813572973013 29
v -28 44.76906722784042 0.5
v -28 28 29
v -28 28 0.5
v -28 28 29
v -28 44.76906722784042 0.5
vn 0 0 1
vn 0 0 1
vn 0 0 1
vn 0 0 1
vn 0 0 1
vn 0 0 1
vn 0 0 1
vn 0 0 1
vn 0 0 1
vn 0 0 1
vn 0 0 1
vn 0 0 1
vn 0 0 1
vn 0 0 1
vn 0 0 1
vn 0 0 1
vn -0.6789343953132629 -0.6789342761039734 0.2794572710990906
vn -0.6789343953132629 -0.6789342761039734 0.2794572710990906
vn -0.6789343953132629 -0.6789342761039734 0.2794572710990906
vn -0.6789343953132629 -0.6789342761039734 0.2794572710990906
vn -1 0 0
vn -1 0 0
vn -1 0 0
vn -1 0 0
vn 0.6789343357086182 0.6789343357086182 0.2794572710990906
vn 0.6789343357086182 0.6789343357086182 0.2794572412967682
vn 0.6789343357086182 0.6789343357086182 0.2794572412967682
vn 0.6789343953132629 0.6789342761039734 0.2794572710990906
vn -0.6789343357086182 0.6789343357086182 0.2794572710990906
vn -0.6789343357086182 0.6789343357086182 0.2794572710990906
vn -0.6789343357086182 0.6789343357086182 0.2794572710990906
vn -0.6789343357086182 0.6789343357086182 0.2794572710990906
vn 0 1 0
vn 0 1 0
vn 0 1 0
vn 0 1 0
vn 0.6789343357086182 -0.6789343357086182 0.2794572710990906
vn 0.6789343357086182 -0.6789343357086182 0.2794572710990906
vn 0.6789343357086182 -0.6789343357086182 0.2794572710990906
vn 0.6789343357086182 -0.6789343357086182 0.2794572710990906
vn 0.6789343357086182 0.6789343357086182 0.2794572412967682
vn 0.6789343357086182 0.6789343357086182 0.2794572412967682
vn 0.6789343357086182 0.6789343357086182 0.2794572412967682
vn 0.6789342761039734 0.6789343357086182 0.279457300901413
vn 1 0 0
vn 1 0 0
vn 1 0 0
vn 1 0 0
vn -0.6789342761039734 -0.6789343953132629 0.2794572710990906
vn -0.6789342761039734 -0.6789343953132629 0.2794572710990906
vn -0.6789342761039734 -0.6789343953132629 0.2794572710990906
vn -0.6789342761039734 -0.6789343953132629 0.2794572710990906
vn 0.6789342761039734 -0.6789343953132629 0.2794572412967682
vn 0.6789343357086182 -0.6789343357086182 0.2794572412967682
vn 0.6789343357086182 -0.6789343357086182 0.2794572412967682
vn 0.6789343357086182 -0.6789343357086182 0.2794572412967682
vn 0 -1 0
vn 0 -1 0
vn 0 -1 0
vn 0 -1 0
vn -0.6789343953132629 0.6789342761039734 0.2794572710990906
vn -0.6789343357086182 0.6789343357086182 0.2794572412967682
vn -0.6789343357086182 0.6789343357086182 0.2794572412967682
vn -0.6789343357086182 0.6789343357086182 0.2794572412967682
vn 0 -1 0
vn 0 -1 0
vn 4.717221112721275e-17 -1 0
vn 4.717221112721275e-17 -1 0
vn 4.717221112721275e-17 -1 0
vn 0 -1 0
vn 1 0 0
vn 1 0 0
vn 1 0 0
vn 1 0 0
vn 1 0 0
vn 1 0 0
vn 0 1 0
vn 0 1 0
vn 0 1 0
vn 0 1 0
vn 0 1 0
vn 0 1 0
vn -1 0 0
vn -1 0 0
vn -1 0 0
vn -1 0 0
vn -1 0 0
vn -1 0 0
vn 0 0 -1
vn 0 0 -1
vn 0 0 -1
vn 0 0 -1
vn 0 0 1
vn 0 0 1
vn 0 0 1
vn 0 0 1
vn 0 0 1
vn 0 0 1
vn 0 0 1
vn 0 0 1
vn 0 0 1
vn 0 0 1
vn 0 0 1
vn 0 0 1
vn 1 0 0
vn 1 0 0
vn 1 0 0
vn 1 0 0
vn 1 0 0
vn 1 0 0
vn 0 -1 0
vn 0 -1 0
vn 0 -1 0
vn -3.371573287515115e-17 -1 -4.759352068296561e-17
vn -3.371573287515115e-17 -1 -4.759352068296561e-17
vn -3.371573287515115e-17 -1 -4.759352068296561e-17
vn 6.280371315437925e-16 -1 -3.417741413875252e-16
vn 6.280371315437925e-16 -1 -3.417741413875252e-16
vn 6.280371315437925e-16 -1 -3.417741413875252e-16
vn 4.717221112721275e-17 -1 0
vn 4.717221112721275e-17 -1 0
vn 4.717221112721275e-17 -1 0
vn 0 1 0
vn 0 1 0
vn 0 1 0
vn 0 1 0
vn 0 1 0
vn 0 1 0
vn 1 0 0
vn 1 0 0
vn 1 0 0
vn 1 0 0
vn 1 0 0
vn 1 0 0
vn -1 0 0
vn -1 0 0
vn -1 0 0
vn -1 0 0
vn -1 0 0
vn -1 0 0
f 16//16 3//3 4//4
f 11//11 3//3 16//16
f 15//15 11//11 16//16
f 9//9 1//1 10//10
f 10//10 11//11 12//12
f 9//9 10//10 12//12
f 14//14 11//11 15//15
f 14//14 15//15 7//7
f 11//11 14//14 12//12
f 5//5 6//6 7//7
f 13//13 12//12 14//14
f 13//13 8//8 2//2
f 13//13 14//14 8//8
f 7//7 15//15 5//5
f 18//18 17//17 19//19
f 22//22 21//21 23//23
f 123//123 124//124 125//125
f 26//26 25//25 27//27
f 30//30 29//29 31//31
f 34//34 33//33 35//35
f 129//129 130//130 131//131
f 38//38 37//37 39//39
f 42//42 41//41 43//43
f 46//46 45//45 47//47
f 117//117 118//118 119//119
f 50//50 49//49 51//51
f 54//54 53//53 55//55
f 58//58 57//57 59//59
f 135//135 136//136 137//137
f 62//62 61//61 63//63
f 66//66 65//65 70//70
f 111//111 112//112 113//113
f 68//68 69//69 67//67
f 72//72 71//71 76//76
f 105//105 106//106 107//107
f 74//74 75//75 73//73
f 78//78 77//77 82//82
f 77//77 79//79 81//81
f 80//80 81//81 79//79
f 84//84 83//83 87//87
f 83//83 85//85 88//88
f 86//86 88//88 85//85
f 90//90 92//92 91//91
f 95//95 93//93 94//94
f 97//97 98//98 96//96
f 100//100 99//99 101//101
f 103//103 102//102 104//104
f 18//18 19//19 20//20
f 22//22 23//23 24//24
f 126//126 127//127 128//128
f 26//26 27//27 28//28
f 30//30 31//31 32//32
f 34//34 35//35 36//36
f 132//132 133//133 134//134
f 38//38 39//39 40//40
f 42//42 43//43 44//44
f 46//46 47//47 48//48
f 120//120 121//121 122//122
f 50//50 51//51 52//52
f 54//54 55//55 56//56
f 58//58 59//59 60//60
f 138//138 139//139 140//140
f 62//62 63//63 64//64
f 114//114 115//115 116//116
f 108//108 109//109 110//110
f 77//77 81//81 82//82
f 83//83 88//88 87//87
f 90//90 91//91 89//89
